<?xml version="1.0" encoding="utf-8"?>
<!-- Generator: Adobe Illustrator 21.1.0, SVG Export Plug-In . SVG Version: 6.00 Build 0)  -->
<svg version="1.1" id="Laag_1" xmlns="http://www.w3.org/2000/svg" xmlns:xlink="http://www.w3.org/1999/xlink" x="0px" y="0px"
	 viewBox="0 0 230 35" style="enable-background:new 0 0 230 35;" xml:space="preserve">
<style type="text/css">
	.st0{fill:#1D1D1B;}
</style>
<title>Tekengebied 1</title>
<path class="st0" d="M16.2,4.3l-1.3,1.1c-1.4-2-3.6-3.2-5.9-3.1C7.1,2.2,5.2,3,3.9,4.5C2.5,5.9,1.7,7.9,1.7,10c0,2.1,0.7,4,2.1,5.5
	c1.4,1.5,3.1,2.2,5.2,2.2c2.3,0,4.4-1.1,5.8-3l1.3,1.1c-0.8,1.2-1.9,2.1-3.1,2.7c-1.3,0.6-2.7,0.9-4.1,0.9c-2.6,0-4.8-0.9-6.5-2.7
	C0.8,14.8,0,12.6,0,9.8c0-1.7,0.4-3.3,1.2-4.7C1.9,3.7,3,2.5,4.4,1.7c1.4-0.8,2.9-1.2,4.4-1.2c1.5,0,2.9,0.3,4.3,1
	C14.3,2.1,15.4,3,16.2,4.3z"/>
<path class="st0" d="M19.5,0.9h1.7v7.5h8.4V0.9h1.7v18h-1.7v-8.7h-8.4v8.7h-1.7V0.9z"/>
<path class="st0" d="M35.4,0.9h3.3c1.8,0,3.1,0.1,3.8,0.3c0.6,0.2,1.2,0.4,1.7,0.9c0.5,0.4,0.9,0.9,1.1,1.6c0.3,0.7,0.4,1.4,0.4,2.1
	c0,1.5-0.5,2.7-1.5,3.6c-1,0.9-2.4,1.3-4.3,1.2l6,8.3H44l-6-8.3h-0.9v8.3h-1.7L35.4,0.9z M37.1,2.7v6.1h2.9c1.4,0,2.5-0.2,3.1-0.7
	c0.7-0.5,1-1.3,1-2.3c0-1.1-0.3-1.8-1-2.3c-0.7-0.5-1.7-0.7-3.1-0.7H37.1z"/>
<path class="st0" d="M49.1,0.9h1.7v18h-1.7V0.9z"/>
<path class="st0" d="M52.8,15.5l1.4-0.9c1,2,2.1,3,3.4,3c0.8,0,1.6-0.3,2.2-0.9c0.6-0.5,0.9-1.3,0.9-2.2c0-0.8-0.3-1.5-0.8-2.1
	c-0.7-0.9-1.6-1.8-2.5-2.5c-0.8-0.7-1.6-1.4-2.4-2.2c-0.4-0.4-0.7-1-0.9-1.5c-0.2-0.5-0.3-1.1-0.3-1.6c0-1.1,0.4-2.2,1.1-3
	c0.8-0.8,1.8-1.2,2.9-1.2c0.8,0,1.7,0.2,2.4,0.7c0.8,0.6,1.4,1.3,2,2.2l-1.3,1.1C60.5,4,60.1,3.4,59.6,3c-0.5-0.4-1.1-0.6-1.7-0.6
	c-0.6,0-1.2,0.2-1.6,0.7c-0.4,0.4-0.7,1-0.6,1.7c0,0.6,0.2,1.3,0.6,1.7c0.4,0.5,1.2,1.3,2.6,2.3c1.3,1.1,2.3,2.1,2.9,3
	c0.6,0.8,0.9,1.8,0.9,2.9c0,1.3-0.5,2.5-1.4,3.4c-0.9,0.9-2,1.4-3.2,1.4C55.8,19.3,54.1,18.1,52.8,15.5z"/>
<path class="st0" d="M64.4,2.7V0.9h9.1v1.8h-3.7v16.2h-1.7V2.7H64.4z"/>
<path class="st0" d="M75.7,0.9h1.7v18h-1.7V0.9z"/>
<path class="st0" d="M81.2,18.9v-18h0.4l11,13.8V0.9h1.6v18h-0.4L82.9,5.3v13.6L81.2,18.9z"/>
<path class="st0" d="M98.2,0.9h9.5v1.8h-7.9v5.6h7.8v1.8h-7.8v7.1h7.8v1.8h-9.5L98.2,0.9z"/>
<path class="st0" d="M156.3,0.5h1.6v18.4h-1.6V0.5z"/>
<path class="st0" d="M171.5,14.6l1.3,0.8c-1.3,2.7-3.3,4-5.9,4c-1.7,0.1-3.4-0.7-4.6-2.1c-2.4-2.8-2.4-7.1,0-9.9
	c1.1-1.4,2.8-2.1,4.5-2.1c1.7,0,3.3,0.7,4.5,1.9c1.2,1.3,1.8,3,1.9,5.3h-11c0,1.6,0.5,2.9,1.4,3.9c0.8,1,2,1.5,3.2,1.5
	C168.9,17.8,170.5,16.7,171.5,14.6z M171.5,11c-0.2-1.2-0.7-2.2-1.6-3c-0.9-0.7-1.9-1.1-3-1.1c-2.3,0-3.8,1.3-4.5,4H171.5z"/>
<path class="st0" d="M182.2,18.9v-18h3.4c2.4,0,4.1,0.2,5.2,0.6c1.1,0.4,2,1,2.9,1.8c0.8,0.8,1.4,1.8,1.8,3c0.5,1.3,0.7,2.7,0.6,4.1
	c0,1.5-0.3,3-1,4.4c-0.6,1.3-1.6,2.4-2.7,3.1c-1.1,0.7-2.8,1.1-5,1.1L182.2,18.9z M183.8,17.2h1.9c2,0,3.5-0.1,4.4-0.3
	c0.9-0.2,1.7-0.6,2.4-1.3c0.7-0.6,1.2-1.4,1.5-2.3c0.4-1,0.5-2.1,0.5-3.2c0-1.1-0.2-2.2-0.6-3.3c-0.4-1-1-1.8-1.7-2.5
	c-0.8-0.7-1.7-1.1-2.7-1.3c-1-0.2-2.5-0.3-4.5-0.3h-1.2L183.8,17.2z"/>
<path class="st0" d="M199.5,0.9h1.7v10.8c0,1.1,0,2,0.1,2.5c0.1,0.6,0.3,1.1,0.6,1.6c0.3,0.5,0.8,1,1.3,1.2c0.6,0.3,1.2,0.5,1.8,0.5
	c0.6,0,1.2-0.1,1.7-0.4c0.5-0.3,0.9-0.6,1.2-1.1c0.3-0.5,0.6-1,0.7-1.5c0.2-0.9,0.2-1.9,0.2-2.9V0.9h1.6v10.8c0,1.8-0.2,3.2-0.5,4.2
	c-0.4,1-1,1.8-1.8,2.4c-0.9,0.7-1.9,1-3,1c-0.9,0-1.7-0.2-2.5-0.5c-0.7-0.3-1.3-0.8-1.8-1.4c-0.5-0.6-0.8-1.2-1-2
	c-0.2-0.7-0.3-2-0.3-3.8L199.5,0.9z"/>
<path class="st0" d="M230,4.3l-1.3,1.1c-1.4-2-3.6-3.2-5.9-3.1c-1.9,0-3.7,0.8-5.1,2.3c-1.4,1.4-2.2,3.4-2.1,5.5
	c0,2.1,0.7,4,2.1,5.5c1.4,1.5,3.1,2.2,5.2,2.2c2.3,0,4.4-1.1,5.8-3l1.3,1.1c-0.8,1.2-1.9,2.1-3.1,2.7c-1.3,0.6-2.7,0.9-4.1,0.9
	c-2.6,0-4.8-0.9-6.5-2.7c-1.7-1.8-2.5-4.1-2.5-6.8c0-1.7,0.4-3.3,1.2-4.7c0.8-1.4,1.9-2.6,3.2-3.4c1.4-0.8,2.9-1.2,4.4-1.2
	c1.5,0,2.9,0.3,4.3,1C228.1,2.1,229.2,3,230,4.3z"/>
<path class="st0" d="M151.5,1.5c0,0-3,2.6-6.3,3c-3.3,0.4-7.7,0.8-11.6,3.5c-0.9,0.7-2.1,0.7-3.1,0c-4-2.7-8.3-3.2-11.6-3.5
	c-3.3-0.4-6.3-3-6.3-3s-1.4,6.4,3.6,12.9s11.2,4,14,2.5c1.1-0.6,1.6-0.7,1.8-0.7s0.7,0.2,1.8,0.7c2.8,1.5,9,4,14-2.5
	S151.5,1.5,151.5,1.5z M122,13.9c0,0-2.1-0.8-2.9-3.8c0,0,2.9-1,5.4,0c1.5,0.7,2.9,1.7,4.1,3.1C128.5,13.2,125.8,16,122,13.9z
	 M142.2,13.9c-3.9,2.1-6.5-0.7-6.5-0.7c1.1-1.3,2.5-2.4,4.1-3.1c2.5-1,5.4,0,5.4,0C144.3,13.1,142.2,13.9,142.2,13.9L142.2,13.9z"/>
<path class="st0" d="M89.3,27.8H90v6.8h2.7v0.7h-3.4V27.8z"/>
<path class="st0" d="M93.7,27.8h0.7v7.5h-0.7V27.8z"/>
<path class="st0" d="M95.5,27.8h0.7l2.3,6l2.3-6h0.7l-3,7.7h-0.1L95.5,27.8z"/>
<path class="st0" d="M102.9,27.8h4v0.7h-3.3v2.3h3.3v0.7h-3.3v3h3.3v0.7h-3.9V27.8z"/>
<path class="st0" d="M110,27.8h0.8l1.8,3.1l1.7-3.1h0.8l-2.2,3.9v3.6h-0.7v-3.6L110,27.8z"/>
<path class="st0" d="M116,31.6c0-0.7,0.2-1.4,0.5-2c0.3-0.6,0.8-1.1,1.3-1.4c0.6-0.3,1.2-0.5,1.8-0.5c0.6,0,1.3,0.2,1.8,0.5
	c0.6,0.3,1,0.8,1.3,1.4c0.6,1.2,0.6,2.7,0,4c-0.3,0.6-0.8,1.1-1.3,1.4c-0.6,0.3-1.2,0.5-1.8,0.5c-0.6,0-1.3-0.2-1.8-0.5
	c-0.6-0.3-1-0.8-1.3-1.4C116.1,32.9,116,32.3,116,31.6z M122.6,31.5c0-1.8-1.3-3.2-2.9-3.2c0,0,0,0,0,0c-0.8,0-1.5,0.3-2.1,0.9
	c-0.6,0.6-0.9,1.4-0.8,2.3c0,0.9,0.3,1.7,0.9,2.3c1.1,1.2,3,1.3,4.1,0C122.3,33.2,122.6,32.4,122.6,31.5L122.6,31.5z"/>
<path class="st0" d="M124.7,27.8h0.7v4.5c0,0.5,0,0.8,0,1.1c0,0.2,0.1,0.5,0.2,0.7c0.1,0.2,0.3,0.4,0.6,0.5c0.2,0.1,0.5,0.2,0.8,0.2
	c0.2,0,0.5,0,0.7-0.2c0.2-0.1,0.4-0.3,0.5-0.5c0.1-0.2,0.2-0.4,0.3-0.6c0.1-0.4,0.1-0.8,0.1-1.2v-4.5h0.7v4.5c0,0.6,0,1.2-0.2,1.7
	c-0.1,0.4-0.4,0.8-0.7,1c-0.4,0.3-0.8,0.4-1.3,0.4c-0.4,0-0.7-0.1-1-0.2c-0.3-0.1-0.6-0.3-0.8-0.6c-0.2-0.2-0.3-0.5-0.4-0.8
	c-0.1-0.5-0.1-1.1-0.1-1.6L124.7,27.8z"/>
<path class="st0" d="M131.1,27.8h1.4c0.5,0,1.1,0,1.6,0.1c0.3,0.1,0.5,0.2,0.7,0.4c0.2,0.2,0.4,0.4,0.5,0.6c0.1,0.3,0.2,0.6,0.2,0.9
	c0,0.6-0.2,1.1-0.6,1.5c-0.4,0.4-1,0.5-1.8,0.5l2.5,3.5h-0.9l-2.5-3.5h-0.4v3.5h-0.7L131.1,27.8z M131.8,28.5v2.6h1.2
	c0.5,0,0.9-0.1,1.3-0.3c0.5-0.5,0.6-1.3,0.1-1.8c0-0.1-0.1-0.1-0.1-0.2c-0.4-0.2-0.8-0.3-1.3-0.3L131.8,28.5z"/>
<path class="st0" d="M139.4,27.8h3.5v0.7h-2.8v2.3h2.8v0.7h-2.8v3.7h-0.7V27.8z"/>
<path class="st0" d="M147,27.5l3.2,7.8h-0.7l-1.1-2.6h-3l-1.1,2.6h-0.8l3.3-7.8L147,27.5z M146.9,29.1l-1.2,2.8h2.4L146.9,29.1z"/>
<path class="st0" d="M151.4,35.3v-7.5h0.2l4.6,5.8v-5.8h0.7v7.5h-0.2l-4.6-5.7v5.7L151.4,35.3z"/>
<path class="st0" d="M157.9,28.5v-0.7h3.8v0.7h-1.5v6.8h-0.7v-6.8H157.9z"/>
<path class="st0" d="M165.6,27.5l3.2,7.8H168l-1.1-2.6h-3l-1.1,2.6h-0.8l3.3-7.8H165.6z M165.5,29.1l-1.2,2.8h2.4L165.5,29.1z"/>
<path class="st0" d="M169.2,33.9l0.6-0.4c0.4,0.8,0.9,1.2,1.4,1.2c0.3,0,0.7-0.1,0.9-0.4c0.2-0.2,0.4-0.6,0.4-0.9
	c0-0.3-0.1-0.6-0.3-0.9c-0.3-0.4-0.7-0.7-1.1-1c-0.4-0.3-0.7-0.6-1-0.9c-0.2-0.2-0.3-0.4-0.4-0.6c-0.1-0.2-0.1-0.4-0.1-0.7
	c0-0.5,0.2-0.9,0.5-1.2c0.3-0.3,0.8-0.5,1.2-0.5c0.4,0,0.7,0.1,1,0.3c0.3,0.2,0.6,0.6,0.8,0.9l-0.6,0.5c-0.2-0.2-0.3-0.5-0.6-0.7
	c-0.2-0.2-0.5-0.3-0.7-0.3c-0.3,0-0.5,0.1-0.7,0.3c-0.2,0.2-0.3,0.4-0.3,0.7c0,0.3,0.1,0.5,0.2,0.7c0.3,0.4,0.7,0.7,1.1,1
	c0.5,0.3,0.9,0.8,1.2,1.2c0.2,0.3,0.4,0.8,0.4,1.2c0,0.5-0.2,1.1-0.6,1.4c-0.4,0.4-0.8,0.6-1.4,0.6
	C170.4,35.5,169.7,34.9,169.2,33.9z"/>
<path class="st0" d="M174.2,27.8h0.8l1.8,3.1l1.7-3.1h0.8l-2.2,3.9v3.6h-0.7v-3.6L174.2,27.8z"/>
</svg>
