<?xml version="1.0" encoding="utf-8"?>
<!-- Generator: Adobe Illustrator 21.1.0, SVG Export Plug-In . SVG Version: 6.00 Build 0)  -->
<svg version="1.1" id="Laag_1" xmlns="http://www.w3.org/2000/svg" xmlns:xlink="http://www.w3.org/1999/xlink" x="0px" y="0px"
	 viewBox="0 0 65 55" style="enable-background:new 0 0 65 55;" xml:space="preserve">
<style type="text/css">
	.st0{fill:#1D1D1B;}
</style>
<title>Tekengebied 1</title>
<path class="st0" d="M46.5,0c0,0-2.2,1.8-4.5,2s-5.5,0.6-8.4,2.4c-0.7,0.4-1.6,0.4-2.2,0c-2.9-1.8-6-2.1-8.4-2.4s-4.5-2-4.5-2
	s-1,4.3,2.6,8.7s8.1,2.7,10.1,1.7c0.8-0.4,1.1-0.5,1.3-0.5c0.2,0,0.5,0.1,1.3,0.5c2,1,6.5,2.7,10.1-1.7S46.5,0,46.5,0z M25.2,8.4
	c0,0-1.5-0.5-2.1-2.5c0,0,2.1-0.7,3.9,0c1.1,0.5,2.1,1.2,2.9,2.1C29.9,7.9,28,9.8,25.2,8.4z M39.8,8.4c-2.8,1.4-4.7-0.5-4.7-0.5
	C35.9,7,36.9,6.3,38,5.8c1.8-0.7,3.9,0,3.9,0C41.3,7.8,39.8,8.4,39.8,8.4z"/>
<path class="st0" d="M10,24.6c-1.1,1.4-2.6,2.1-4.5,2.1c-1.6,0-2.9-0.5-3.9-1.5c-1-1-1.5-2.3-1.5-3.9c0-0.9,0.2-1.9,0.7-2.7
	c0.5-0.8,1.1-1.5,2-1.9C3.5,16.2,4.5,16,5.4,16c0.9,0,1.8,0.2,2.6,0.6c0.8,0.4,1.4,0.9,1.9,1.7L9,18.9c-1-1.2-2.1-1.8-3.5-1.8
	c-1.1,0-2.2,0.4-3,1.2c-0.8,0.8-1.3,1.9-1.2,3c0,1.1,0.4,2.2,1.2,3c0.8,0.8,1.9,1.2,3.2,1.2C7,25.6,8.1,25,9,23.9L10,24.6z"/>
<path class="st0" d="M19,26.5h-1.2v-4.8h-4.8v4.8h-1.2V16.3h1.2v4.2h4.8v-4.2H19L19,26.5z"/>
<path class="st0" d="M27.9,26.5h-1.5l-3.6-4.7h-0.4v4.7h-1.2V16.3h2.1c1.1,0,1.9,0,2.3,0.1c0.4,0.1,0.8,0.3,1.1,0.5
	c0.3,0.2,0.6,0.6,0.7,0.9c0.2,0.4,0.3,0.8,0.3,1.2c0,0.8-0.3,1.5-0.9,2c-0.6,0.5-1.4,0.8-2.5,0.8L27.9,26.5z M22.5,20.6h1.6
	c0.8,0,1.4-0.1,1.8-0.4c0.4-0.3,0.6-0.7,0.6-1.2c0-0.6-0.2-1-0.6-1.2c-0.4-0.3-1-0.4-1.8-0.4h-1.7L22.5,20.6z"/>
<path class="st0" d="M30.7,26.5h-1.2V16.3h1.2V26.5z"/>
<path class="st0" d="M36.7,18.5c-0.3-0.4-0.6-0.7-0.9-1c-0.3-0.2-0.6-0.3-0.9-0.3c-0.3,0-0.6,0.1-0.9,0.3c-0.2,0.2-0.4,0.5-0.4,0.9
	c0,0.3,0.1,0.7,0.3,0.9c0.2,0.3,0.7,0.7,1.5,1.3c0.7,0.5,1.3,1,1.7,1.7c0.4,0.5,0.5,1.1,0.6,1.7c0,0.7-0.3,1.5-0.9,2
	c-0.5,0.5-1.3,0.8-2,0.8c-1.3,0-2.4-0.8-3.2-2.3l1-0.6c0.6,1.1,1.3,1.7,2,1.7c0.5,0,0.9-0.2,1.2-0.5c0.3-0.3,0.5-0.7,0.5-1.1
	c0-0.4-0.2-0.8-0.4-1.2c-0.4-0.5-0.9-1-1.5-1.4c-0.5-0.4-1-0.8-1.4-1.2c-0.2-0.3-0.4-0.6-0.6-0.9c-0.1-0.3-0.2-0.6-0.2-0.9
	c0-0.6,0.2-1.3,0.7-1.7c0.5-0.5,1.1-0.7,1.8-0.7c0.5,0,1,0.1,1.5,0.4c0.5,0.4,0.9,0.8,1.2,1.3L36.7,18.5z"/>
<path class="st0" d="M44.4,17.4h-2.2v9H41v-9h-2.2v-1.2h5.6L44.4,17.4z"/>
<path class="st0" d="M46.7,26.5h-1.2V16.3h1.2V26.5z"/>
<path class="st0" d="M56.8,26.5h-0.4L50,19.1v7.4h-1.2V16.3h0.4l6.4,7.5v-7.5h1.2V26.5z"/>
<path class="st0" d="M64.9,17.4h-4.7v2.9h4.6v1.2h-4.6v3.7h4.6v1.2h-5.8V16.3h5.9L64.9,17.4z"/>
<path class="st0" d="M0,49.8h0.5v4.6h1.9v0.5H0V49.8z"/>
<path class="st0" d="M3.2,49.8h0.5v5.1H3.2V49.8z"/>
<path class="st0" d="M4.5,49.8H5l1.7,4l1.7-4h0.5L6.7,55H6.6L4.5,49.8z"/>
<path class="st0" d="M9.8,49.8h2.9v0.5h-2.4v1.6h2.4v0.5h-2.4v2h2.4v0.5H9.8V49.8z"/>
<path class="st0" d="M14.9,49.8h0.6l1.3,2.1l1.3-2.1h0.6L17,52.5v2.4h-0.5v-2.4L14.9,49.8z"/>
<path class="st0" d="M19.3,52.4c0-0.5,0.1-0.9,0.3-1.4c0.2-0.4,0.6-0.7,1-1c0.4-0.2,0.9-0.4,1.3-0.4c0.5,0,0.9,0.1,1.3,0.3
	c0.4,0.2,0.7,0.6,1,1c0.5,0.8,0.5,1.8,0,2.7c-0.2,0.4-0.6,0.7-1,1c-0.4,0.2-0.9,0.4-1.3,0.4c-0.5,0-0.9-0.1-1.3-0.3
	c-0.4-0.2-0.7-0.6-1-1C19.4,53.3,19.3,52.8,19.3,52.4z M24,52.3c0-1.2-0.9-2.2-2.1-2.2c0,0,0,0,0,0c-0.6,0-1.1,0.2-1.5,0.6
	c-0.4,0.4-0.6,1-0.6,1.5c0,0.6,0.2,1.1,0.6,1.5c0.8,0.8,2.2,0.8,3,0C23.8,53.5,24,52.9,24,52.3L24,52.3z"/>
<path class="st0" d="M25.6,49.8h0.5v3.1c0,0.3,0,0.6,0,0.7c0,0.2,0.1,0.3,0.2,0.5c0.1,0.2,0.2,0.3,0.4,0.4c0.2,0.1,0.4,0.1,0.6,0.1
	c0.2,0,0.4,0,0.5-0.1c0.1-0.1,0.3-0.2,0.4-0.3c0.1-0.1,0.2-0.3,0.2-0.4c0-0.3,0.1-0.5,0.1-0.8v-3.1h0.5v3.1c0,0.4,0,0.8-0.2,1.2
	c-0.1,0.3-0.3,0.5-0.5,0.7c-0.3,0.2-0.6,0.3-0.9,0.3c-0.3,0-0.5,0-0.8-0.1c-0.2-0.1-0.4-0.2-0.6-0.4c-0.1-0.2-0.3-0.3-0.3-0.5
	c-0.1-0.4-0.1-0.7-0.1-1.1L25.6,49.8z"/>
<path class="st0" d="M30.2,49.8h1c0.4,0,0.8,0,1.1,0.1c0.2,0,0.4,0.1,0.5,0.2c0.1,0.1,0.3,0.3,0.3,0.4c0.1,0.2,0.1,0.4,0.1,0.6
	c0,0.4-0.2,0.8-0.5,1c-0.3,0.2-0.7,0.4-1.3,0.3l1.8,2.4h-0.6L31,52.5h-0.3v2.4h-0.5L30.2,49.8z M30.7,50.3V52h0.9
	c0.3,0,0.7,0,0.9-0.2c0.4-0.3,0.4-0.8,0.1-1.2c0,0-0.1-0.1-0.1-0.1c-0.3-0.2-0.6-0.2-0.9-0.2L30.7,50.3z"/>
<path class="st0" d="M36.2,49.8h2.5v0.5h-2v1.6h2v0.5h-2v2.5h-0.5L36.2,49.8z"/>
<path class="st0" d="M41.7,49.6l2.3,5.3h-0.5l-0.8-1.7h-2.2l-0.8,1.7h-0.6l2.4-5.3L41.7,49.6z M41.6,50.7l-0.9,1.9h1.7L41.6,50.7z"
	/>
<path class="st0" d="M44.8,54.9v-5.1h0.1l3.3,3.9v-3.9h0.5v5.1h-0.1L45.3,51v3.8H44.8z"/>
<path class="st0" d="M49.5,50.3v-0.5h2.7v0.5h-1.1v4.6h-0.5v-4.6H49.5z"/>
<path class="st0" d="M55.1,49.6l2.3,5.3h-0.5l-0.8-1.7h-2.2l-0.8,1.7h-0.6l2.4-5.3L55.1,49.6z M55,50.7l-0.9,1.9h1.7L55,50.7z"/>
<path class="st0" d="M57.7,53.9l0.4-0.3c0.3,0.6,0.6,0.8,1,0.8c0.2,0,0.5-0.1,0.7-0.2c0.2-0.2,0.3-0.4,0.3-0.6
	c0-0.2-0.1-0.4-0.2-0.6c-0.2-0.3-0.5-0.5-0.8-0.7c-0.3-0.2-0.5-0.4-0.7-0.6c-0.1-0.1-0.2-0.3-0.3-0.4C58,51.2,58,51,58,50.9
	c0-0.3,0.1-0.6,0.3-0.8c0.2-0.2,0.5-0.4,0.9-0.3c0.3,0,0.5,0.1,0.7,0.2c0.2,0.2,0.4,0.4,0.6,0.6l-0.4,0.3c-0.1-0.2-0.3-0.3-0.4-0.4
	c-0.1-0.1-0.3-0.2-0.5-0.2c-0.2,0-0.4,0.1-0.5,0.2c-0.1,0.1-0.2,0.3-0.2,0.5c0,0.2,0.1,0.4,0.2,0.5c0.2,0.2,0.5,0.5,0.8,0.7
	c0.3,0.2,0.6,0.5,0.9,0.8c0.2,0.2,0.3,0.5,0.3,0.8c0,0.4-0.2,0.7-0.4,1c-0.3,0.3-0.6,0.4-1,0.4C58.6,55,58,54.6,57.7,53.9z"/>
<path class="st0" d="M61.3,49.8h0.6l1.3,2.1l1.3-2.1H65l-1.6,2.6v2.4h-0.5v-2.4L61.3,49.8z"/>
<path class="st0" d="M0,30.4h1.4v15.1H0L0,30.4z"/>
<path class="st0" d="M13.4,42l1.2,0.6c-1.2,2.2-2.9,3.3-5.1,3.3c-1.6,0-3-0.6-4-1.7c-2.1-2.3-2.1-5.8,0-8.1c1-1.1,2.4-1.7,3.9-1.7
	c1.5,0,2.9,0.5,3.9,1.6c1.1,1.1,1.6,2.5,1.7,4.3H5.3c0,1.3,0.4,2.4,1.2,3.2c0.7,0.8,1.8,1.2,2.8,1.2C11.2,44.6,12.5,43.7,13.4,42z
	 M13.4,39c-0.1-1-0.7-1.8-1.4-2.4c-0.7-0.6-1.7-0.9-2.6-0.9c-2,0-3.3,1.1-4,3.3H13.4z"/>
<path class="st0" d="M23,45.5V30.8h3c2.1,0,3.6,0.2,4.5,0.5c0.9,0.3,1.8,0.8,2.5,1.5c0.7,0.7,1.3,1.5,1.6,2.4
	c0.4,1.1,0.6,2.2,0.6,3.3c0,1.3-0.3,2.5-0.9,3.6C33.8,43.1,33,44,32,44.6c-1,0.6-2.5,0.9-4.3,0.9L23,45.5z M24.4,44.1h1.7
	c1.8,0,3-0.1,3.8-0.3c0.8-0.2,1.5-0.5,2.1-1.1c0.6-0.5,1.1-1.2,1.4-1.9c0.6-1.7,0.6-3.6-0.1-5.3c-0.3-0.8-0.9-1.5-1.5-2
	c-0.7-0.5-1.5-0.9-2.3-1.1c-0.9-0.2-2.2-0.3-4-0.3h-1.1L24.4,44.1z"/>
<path class="st0" d="M38.2,30.8h1.5v8.9c0,0.9,0,1.6,0.1,2.1c0.1,0.5,0.2,0.9,0.5,1.3c0.3,0.4,0.7,0.8,1.2,1
	c0.5,0.3,1.1,0.4,1.6,0.4c0.5,0,1-0.1,1.5-0.3c0.4-0.2,0.8-0.5,1.1-0.9c0.3-0.4,0.5-0.8,0.6-1.3c0.1-0.5,0.2-1.2,0.2-2.3v-8.9h1.4
	v8.9c0,1.5-0.1,2.6-0.4,3.4c-0.3,0.8-0.9,1.5-1.6,2c-0.8,0.5-1.7,0.8-2.6,0.8c-0.7,0-1.5-0.1-2.2-0.4c-0.6-0.2-1.2-0.6-1.6-1.1
	c-0.4-0.5-0.7-1-0.9-1.6c-0.2-0.6-0.3-1.6-0.3-3.1L38.2,30.8z"/>
<path class="st0" d="M65,33.5l-1.1,0.9c-1.3-1.7-3.1-2.5-5.2-2.5c-1.7,0-3.3,0.6-4.5,1.8c-1.2,1.2-1.9,2.8-1.9,4.5
	c0,1.8,0.6,3.3,1.8,4.5c1.2,1.2,2.7,1.8,4.6,1.8c2.1,0,3.8-0.8,5.1-2.4l1.1,0.9c-0.7,0.9-1.6,1.7-2.7,2.2c-1.1,0.5-2.4,0.8-3.6,0.7
	c-2.3,0-4.2-0.7-5.7-2.2c-1.5-1.5-2.2-3.3-2.2-5.6c0-1.4,0.3-2.7,1-3.9c0.7-1.2,1.7-2.1,2.8-2.8c1.2-0.7,2.5-1,3.9-1
	c1.3,0,2.6,0.3,3.7,0.8C63.4,31.7,64.3,32.5,65,33.5z"/>
</svg>
